<svg xmlns="http://www.w3.org/2000/svg" viewBox="0 0 92.76 83.79"><defs><style>.cls-1{opacity:0.24;}.cls-2{fill:#fff;}</style></defs><title>DS.sphere</title><g id="Layer_2" data-name="Layer 2"><g id="top_of_navigation" data-name="top of navigation"><path class="cls-1" d="M92.76,41.07C90.2,47,88.13,53.17,84.94,58.82c-2.5,4.44-6.31,8.29-9.66,12.31C65.19,83.22,51.7,86.19,36.2,82c-8.57-2.33-17.49-4.74-25-9C1.46,67.52-.58,57.91.13,48,.39,44.3,1.3,40.63,1.51,36.94,2.44,21,13.7,11.05,26.58,2.06A5.77,5.77,0,0,1,29.3.78C44.59.31,60.22-3,73.18,8.7,83.21,17.73,90.89,27.33,92.76,41.07Z"/><path class="cls-2" d="M48.5,28.33c-1.4,1.86-2.23,2.08-3.42.64-1.9-2.3-3.81-2.46-5.43-.76A2.58,2.58,0,0,0,39.53,32c.38.47.85.88,1.25,1.34.77.87.56,1.37-.59,1.59-2.12.41-3.28,1.52-3.38,3.15A5.14,5.14,0,0,0,40,42.6a6.66,6.66,0,0,0,8.33-3.67,2.67,2.67,0,0,0-.14-2.16c-.28-.37-1.35-.35-2-.19s-1.34.84-2.08,1.05a5.61,5.61,0,0,1-1.86-.08c.11-.62,0-1.62.37-1.79a8.15,8.15,0,0,1,3.82-1.32c2.6.15,5.08.45,7.31-1.34.33-.27,1.14,0,1.73.1-.19.56-.22,1.48-.57,1.62C52.19,35.9,51.2,38.13,50,40.57c-1.91,3.82-6.39,4.85-10.49,4.33a7.24,7.24,0,0,1-2.88-1c-3.45-2.2-3.89-5.86-1-8.88,1-1.11,1.55-1.89.67-3.42a3.77,3.77,0,0,1,.61-4.6,5.6,5.6,0,0,1,6-1.84C44.77,25.85,46.48,27.18,48.5,28.33Z"/><circle class="cls-2" cx="42.94" cy="58.78" r="3.75"/></g></g></svg>